<svg fill="black" xmlns="http://www.w3.org/2000/svg" viewBox="0 0 29.196 29.196"><path d="M26.169 7.688h-7.764c-.401 0-.782.083-1.134.226a3.522 3.522 0 0 0-3.211-2.103H3.515A3.526 3.526 0 0 0 0 9.326v10.545a3.526 3.526 0 0 0 3.515 3.515H14.06a3.52 3.52 0 0 0 3.211-2.103c.351.143.732.225 1.134.225h7.764a3.03 3.03 0 0 0 3.027-3.027v-7.764a3.031 3.031 0 0 0-3.027-3.029zM8.754 20.291c-2.848 0-4.102-2.559-4.119-5.676 0-3.188 1.356-5.714 4.203-5.714 2.948 0 4.102 2.628 4.102 5.646 0 3.406-1.373 5.744-4.186 5.744zm19.563-1.812a2.151 2.151 0 0 1-2.148 2.149h-7.764c-.318 0-.615-.079-.888-.205.029-.182.058-.363.058-.555V9.326c0-.19-.026-.372-.058-.554a2.1 2.1 0 0 1 .888-.205h7.764c1.185 0 2.148.965 2.148 2.149v7.763z"/><path d="M20.428 11.539l.312 1.423 1.547-.734h.025v6.424h1.834V10.54h-1.571zM8.804 10.852c-.948 0-1.593 1.203-1.576 3.764-.017 2.524.593 3.728 1.593 3.728s1.542-1.255 1.542-3.763c.001-2.441-.524-3.729-1.559-3.729z"/></svg>
